<svg width="1483" height="423" viewBox="0 0 1483 423" fill="none" xmlns="http://www.w3.org/2000/svg">
<path d="M1461.25 21.25H21.2501V401.25H1461.25V21.25Z" fill="url(#paint0_linear_147_4419)"/>
<path d="M1.25012 1.25L321.25 71.25L621.25 31.25L921.25 101.25L1221.25 1.25L1481.25 61.25V1.25H1.25012Z" fill="url(#paint1_linear_147_4419)" stroke="#1A0D23" stroke-width="2.5" stroke-linejoin="round"/>
<path d="M1.25012 401.25L421.25 341.25L821.25 401.25L1121.25 321.25L1481.25 401.25V421.25H1.25012V401.25Z" fill="url(#paint2_linear_147_4419)" stroke="#1A0D23" stroke-width="2.5" stroke-linejoin="round"/>
<path d="M1.25012 101.25L271.25 171.25L471.25 141.25L721.25 221.25L971.25 171.25L1271.25 241.25L1481.25 201.25V101.25L1221.25 61.25L921.25 121.25L621.25 81.25L321.25 121.25L1.25012 41.25V101.25Z" fill="url(#paint3_linear_147_4419)" stroke="#1A0D23" stroke-width="2.5" stroke-linejoin="round"/>
<path d="M1.25012 301.25L221.25 371.25L521.25 301.25L871.25 361.25L1171.25 271.25L1481.25 341.25V261.25L1221.25 201.25L921.25 271.25L621.25 201.25L321.25 241.25L1.25012 171.25V301.25Z" fill="url(#paint4_linear_147_4419)" stroke="#1A0D23" stroke-width="2.5" stroke-linejoin="round"/>
<path d="M181.25 301.25L241.25 201.25L341.25 171.25L441.25 211.25L481.25 301.25L401.25 381.25L281.25 371.25L181.25 301.25Z" fill="url(#paint5_linear_147_4419)" stroke="#1A0D23" stroke-width="2.5" stroke-linejoin="round"/>
<path d="M211.25 291.25L261.25 221.25L331.25 201.25L411.25 231.25L441.25 301.25L381.25 351.25L291.25 341.25L211.25 291.25Z" fill="url(#paint6_linear_147_4419)" stroke="#1A0D23" stroke-width="2.5" stroke-linejoin="round"/>
<path d="M241.25 281.25L281.25 241.25L331.25 221.25L391.25 251.25L411.25 301.25L361.25 331.25L301.25 321.25L241.25 281.25Z" fill="url(#paint7_linear_147_4419)" stroke="#1A0D23" stroke-width="2.5" stroke-linejoin="round"/>
<path d="M261.25 281.25L301.25 256.25L331.25 246.25L371.25 266.25L386.25 301.25L351.25 321.25L311.25 311.25L261.25 281.25Z" fill="url(#paint8_linear_147_4419)" stroke="#1A0D23" stroke-width="2.5" stroke-linejoin="round"/>
<path d="M281.25 281.25L316.25 266.25L331.25 261.25L356.25 276.25L366.25 301.25L341.25 311.25L321.25 306.25L281.25 281.25Z" fill="url(#paint9_linear_147_4419)" stroke="#1A0D23" stroke-width="2.5" stroke-linejoin="round"/>
<path d="M296.25 281.25L326.25 273.25L336.25 271.25L349.25 281.25L353.25 296.25L336.25 303.25L323.25 296.25L296.25 281.25Z" fill="url(#paint10_linear_147_4419)" stroke="#1A0D23" stroke-width="2.5" stroke-linejoin="round"/>
<path d="M306.25 283.25L329.25 276.25L336.25 279.25L343.25 286.25L339.25 296.25H329.25L306.25 283.25Z" fill="url(#paint11_linear_147_4419)" stroke="#1A0D23" stroke-width="2.5" stroke-linejoin="round"/>
<path d="M316.25 286.25L326.25 281.25L333.25 284.25L336.25 289.25L331.25 293.25L323.25 291.25L316.25 286.25Z" fill="url(#paint12_linear_147_4419)" stroke="#1A0D23" stroke-width="2.5" stroke-linejoin="round"/>
<path d="M501.25 161.25L541.25 81.25L641.25 51.25L741.25 91.25L781.25 181.25L701.25 261.25L581.25 251.25L501.25 161.25Z" fill="url(#paint13_linear_147_4419)" stroke="#1A0D23" stroke-width="2.5" stroke-linejoin="round"/>
<path d="M531.25 161.25L561.25 101.25L631.25 81.25L711.25 111.25L741.25 181.25L681.25 231.25L591.25 221.25L531.25 161.25Z" fill="url(#paint14_linear_147_4419)" stroke="#1A0D23" stroke-width="2.5" stroke-linejoin="round"/>
<path d="M561.25 161.25L581.25 121.25L631.25 101.25L691.25 131.25L711.25 181.25L661.25 211.25L601.25 201.25L561.25 161.25Z" fill="url(#paint15_linear_147_4419)" stroke="#1A0D23" stroke-width="2.5" stroke-linejoin="round"/>
<path d="M581.25 161.25L601.25 136.25L631.25 126.25L671.25 146.25L686.25 181.25L651.25 201.25L611.25 191.25L581.25 161.25Z" fill="url(#paint16_linear_147_4419)" stroke="#1A0D23" stroke-width="2.5" stroke-linejoin="round"/>
<path d="M601.25 161.25L616.25 146.25L631.25 141.25L656.25 156.25L666.25 181.25L641.25 191.25L621.25 186.25L601.25 161.25Z" fill="url(#paint17_linear_147_4419)" stroke="#1A0D23" stroke-width="2.5" stroke-linejoin="round"/>
<path d="M616.25 161.25L626.25 153.25L636.25 151.25L649.25 161.25L653.25 176.25L636.25 183.25L623.25 176.25L616.25 161.25Z" fill="url(#paint18_linear_147_4419)" stroke="#1A0D23" stroke-width="2.5" stroke-linejoin="round"/>
<path d="M623.25 163.25L633.25 156.25L643.25 161.25L646.25 169.25L636.25 176.25L626.25 171.25L623.25 163.25Z" fill="url(#paint19_linear_147_4419)" stroke="#1A0D23" stroke-width="2.5" stroke-linejoin="round"/>
<path d="M629.25 165.25L636.25 161.25L641.25 164.25V169.25L633.25 171.25L629.25 168.25V165.25Z" fill="url(#paint20_linear_147_4419)" stroke="#1A0D23" stroke-width="2.5" stroke-linejoin="round"/>
<path d="M771.25 261.25L841.25 141.25L1001.25 101.25L1161.25 171.25L1201.25 321.25L1071.25 421.25L881.25 401.25L771.25 261.25Z" fill="url(#paint21_linear_147_4419)" stroke="#1A0D23" stroke-width="2.5" stroke-linejoin="round"/>
<path d="M811.25 261.25L871.25 171.25L991.25 141.25L1121.25 201.25L1151.25 311.25L1041.25 381.25L901.25 361.25L811.25 261.25Z" fill="url(#paint22_linear_147_4419)" stroke="#1A0D23" stroke-width="2.5" stroke-linejoin="round"/>
<path d="M851.25 261.25L901.25 201.25L981.25 181.25L1081.25 231.25L1101.25 301.25L1011.25 351.25L921.25 331.25L851.25 261.25Z" fill="url(#paint23_linear_147_4419)" stroke="#1A0D23" stroke-width="2.5" stroke-linejoin="round"/>
<path d="M891.25 261.25L931.25 221.25L981.25 211.25L1051.25 251.25L1061.25 291.25L991.25 321.25L941.25 311.25L891.25 261.25Z" fill="url(#paint24_linear_147_4419)" stroke="#1A0D23" stroke-width="2.5" stroke-linejoin="round"/>
<path d="M921.25 261.25L951.25 236.25L981.25 231.25L1021.25 261.25L1031.25 286.25L976.25 306.25L956.25 296.25L921.25 261.25Z" fill="url(#paint25_linear_147_4419)" stroke="#1A0D23" stroke-width="2.5" stroke-linejoin="round"/>
<path d="M941.25 261.25L961.25 246.25H981.25L1001.25 266.25L1006.25 281.25L971.25 291.25L966.25 286.25L941.25 261.25Z" fill="url(#paint26_linear_147_4419)" stroke="#1A0D23" stroke-width="2.5" stroke-linejoin="round"/>
<path d="M956.25 261.25L966.25 253.25L981.25 256.25L991.25 269.25V276.25L976.25 281.25L966.25 276.25L956.25 261.25Z" fill="url(#paint27_linear_147_4419)" stroke="#1A0D23" stroke-width="2.5" stroke-linejoin="round"/>
<path d="M963.25 263.25L973.25 259.25L983.25 263.25L986.25 271.25L976.25 276.25L966.25 273.25L963.25 263.25Z" fill="url(#paint28_linear_147_4419)" stroke="#1A0D23" stroke-width="2.5" stroke-linejoin="round"/>
<path d="M969.25 265.25L976.25 261.25L981.25 265.25V269.25L973.25 273.25L969.25 269.25V265.25Z" fill="url(#paint29_linear_147_4419)" stroke="#1A0D23" stroke-width="2.5" stroke-linejoin="round"/>
<path d="M973.25 267.25L976.25 265.25L979.25 266.25V269.25L975.25 270.25L972.25 268.25L973.25 267.25Z" fill="url(#paint30_linear_147_4419)" stroke="#1A0D23" stroke-width="2.5" stroke-linejoin="round"/>
<path d="M1171.25 121.25L1221.25 51.25L1321.25 31.25L1421.25 71.25L1441.25 171.25L1361.25 241.25L1241.25 211.25L1171.25 121.25Z" fill="url(#paint31_linear_147_4419)" stroke="#1A0D23" stroke-width="2.5" stroke-linejoin="round"/>
<path d="M1201.25 121.25L1241.25 71.25L1311.25 61.25L1391.25 91.25L1401.25 161.25L1331.25 211.25L1261.25 181.25L1201.25 121.25Z" fill="url(#paint32_linear_147_4419)" stroke="#1A0D23" stroke-width="2.5" stroke-linejoin="round"/>
<path d="M1231.25 121.25L1261.25 91.25L1311.25 86.25L1361.25 111.25L1371.25 151.25L1311.25 181.25L1271.25 161.25L1231.25 121.25Z" fill="url(#paint33_linear_147_4419)" stroke="#1A0D23" stroke-width="2.5" stroke-linejoin="round"/>
<path d="M1261.25 121.25L1281.25 106.25L1311.25 101.25L1341.25 126.25L1346.25 146.25L1301.25 161.25L1281.25 146.25L1261.25 121.25Z" fill="url(#paint34_linear_147_4419)" stroke="#1A0D23" stroke-width="2.5" stroke-linejoin="round"/>
<path d="M1281.25 121.25L1291.25 116.25L1311.25 113.25L1326.25 131.25V141.25L1296.25 151.25L1286.25 136.25L1281.25 121.25Z" fill="url(#paint35_linear_147_4419)" stroke="#1A0D23" stroke-width="2.5" stroke-linejoin="round"/>
<path d="M1291.25 121.25L1299.25 118.25L1311.25 119.25L1319.25 131.25L1316.25 139.25L1301.25 143.25L1293.25 133.25L1291.25 121.25Z" fill="url(#paint36_linear_147_4419)" stroke="#1A0D23" stroke-width="2.5" stroke-linejoin="round"/>
<path d="M1296.25 123.25L1303.25 121.25L1309.25 124.25L1313.25 129.25L1306.25 136.25L1299.25 131.25L1296.25 123.25Z" fill="url(#paint37_linear_147_4419)" stroke="#1A0D23" stroke-width="2.5" stroke-linejoin="round"/>
<path d="M1301.25 125.25L1306.25 123.25L1309.25 126.25V129.25L1304.25 131.25L1301.25 129.25V125.25Z" fill="url(#paint38_linear_147_4419)" stroke="#1A0D23" stroke-width="2.5" stroke-linejoin="round"/>
<path d="M1.25012 1.25H121.25L221.25 41.25H321.25L421.25 1.25H1.25012Z" fill="url(#paint39_linear_147_4419)" stroke="#1A0D23" stroke-width="2.5" stroke-linejoin="round"/>
<path d="M1.25012 41.25L171.25 61.25L271.25 71.25L401.25 41.25L521.25 1.25H421.25L321.25 41.25H221.25L121.25 1.25H1.25012V41.25Z" fill="url(#paint40_linear_147_4419)" stroke="#1A0D23" stroke-width="2.5" stroke-linejoin="round"/>
<path d="M1.25012 81.25L141.25 101.25L241.25 121.25L341.25 101.25L441.25 61.25L571.25 1.25H521.25L401.25 41.25L271.25 71.25L171.25 61.25L1.25012 41.25V81.25Z" fill="url(#paint41_linear_147_4419)" stroke="#1A0D23" stroke-width="2.5" stroke-linejoin="round"/>
<path d="M1.25012 121.25L121.25 141.25L221.25 161.25L301.25 141.25L401.25 101.25L501.25 61.25L621.25 1.25H571.25L441.25 61.25L341.25 101.25L241.25 121.25L141.25 101.25L1.25012 81.25V121.25Z" fill="url(#paint42_linear_147_4419)" stroke="#1A0D23" stroke-width="2.5" stroke-linejoin="round"/>
<path d="M1.25012 161.25L101.25 181.25L181.25 171.25L241.25 121.25L341.25 101.25L441.25 141.25L541.25 201.25L641.25 271.25L741.25 281.25L841.25 221.25L1001.25 181.25L1161.25 221.25L1241.25 301.25L1341.25 341.25L1481.25 321.25V271.25L1321.25 301.25L1221.25 251.25L1121.25 181.25L971.25 141.25L821.25 171.25L721.25 231.25L621.25 221.25L521.25 161.25L421.25 101.25L321.25 61.25L221.25 81.25L121.25 141.25L1.25012 121.25V161.25Z" fill="url(#paint43_linear_147_4419)" stroke="#1A0D23" stroke-width="2.5" stroke-linejoin="round"/>
<path d="M1.25012 401.25L121.25 321.25L201.25 341.25L281.25 401.25H1.25012Z" fill="url(#paint44_linear_147_4419)" stroke="#1A0D23" stroke-width="2.5" stroke-linejoin="round"/>
<path d="M1.25012 241.25L141.25 281.25L221.25 321.25L341.25 401.25H281.25L201.25 341.25L121.25 321.25L1.25012 281.25V241.25Z" fill="url(#paint45_linear_147_4419)" stroke="#1A0D23" stroke-width="2.5" stroke-linejoin="round"/>
<path d="M1.25012 201.25L161.25 231.25L241.25 261.25L341.25 341.25L441.25 401.25H341.25L221.25 321.25L141.25 281.25L1.25012 241.25V201.25Z" fill="url(#paint46_linear_147_4419)" stroke="#1A0D23" stroke-width="2.5" stroke-linejoin="round"/>
<path d="M1.25012 161.25L181.25 191.25L261.25 221.25L381.25 281.25L481.25 361.25L581.25 401.25H441.25L341.25 341.25L241.25 261.25L161.25 231.25L1.25012 201.25V161.25Z" fill="url(#paint47_linear_147_4419)" stroke="#1A0D23" stroke-width="2.5" stroke-linejoin="round"/>
<path d="M401.25 101.25L501.25 121.25L581.25 181.25L681.25 261.25L781.25 281.25L881.25 241.25L1021.25 201.25L1161.25 221.25L1281.25 281.25L1481.25 241.25V201.25L1261.25 241.25L1141.25 181.25L1001.25 161.25L861.25 201.25L761.25 241.25L661.25 221.25L561.25 141.25L481.25 101.25H401.25Z" fill="url(#paint48_linear_147_4419)" stroke="#1A0D23" stroke-width="2.5" stroke-linejoin="round"/>
<path d="M481.25 101.25L561.25 141.25L661.25 221.25L761.25 241.25L861.25 201.25L1001.25 161.25L1141.25 181.25L1261.25 241.25L1481.25 201.25V141.25L1241.25 201.25L1121.25 141.25L981.25 121.25L841.25 161.25L741.25 201.25L641.25 181.25L541.25 101.25H481.25Z" fill="url(#paint49_linear_147_4419)" stroke="#1A0D23" stroke-width="2.5" stroke-linejoin="round"/>
<path d="M541.25 101.25L641.25 181.25L741.25 201.25L841.25 161.25L981.25 121.25L1121.25 141.25L1241.25 201.25L1481.25 141.25V101.25L1221.25 161.25L1101.25 101.25L961.25 81.25L821.25 121.25L721.25 161.25L621.25 141.25L521.25 61.25L541.25 101.25Z" fill="url(#paint50_linear_147_4419)" stroke="#1A0D23" stroke-width="2.5" stroke-linejoin="round"/>
<path d="M621.25 1.25L721.25 61.25L821.25 81.25L961.25 41.25L1101.25 1.25H621.25Z" fill="url(#paint51_linear_147_4419)" stroke="#1A0D23" stroke-width="2.5" stroke-linejoin="round"/>
<path d="M571.25 1.25L671.25 41.25L771.25 101.25H901.25L1041.25 61.25L1181.25 41.25L1301.25 1.25H1101.25L961.25 41.25L821.25 81.25L721.25 61.25L621.25 1.25H571.25Z" fill="url(#paint52_linear_147_4419)" stroke="#1A0D23" stroke-width="2.5" stroke-linejoin="round"/>
<path d="M521.25 61.25L621.25 141.25L721.25 161.25L821.25 121.25L961.25 81.25L1101.25 101.25L1221.25 161.25L1481.25 101.25V1.25H1301.25L1181.25 41.25L1041.25 61.25L901.25 101.25H771.25L671.25 41.25L571.25 1.25H521.25V61.25Z" fill="url(#paint53_linear_147_4419)" stroke="#1A0D23" stroke-width="2.5" stroke-linejoin="round"/>
<path d="M481.25 361.25L581.25 321.25L701.25 301.25L821.25 341.25L961.25 401.25H481.25V361.25Z" fill="url(#paint54_linear_147_4419)" stroke="#1A0D23" stroke-width="2.5" stroke-linejoin="round"/>
<path d="M581.25 321.25L681.25 281.25L801.25 301.25L921.25 381.25L1121.25 401.25H961.25L821.25 341.25L701.25 301.25L581.25 321.25Z" fill="url(#paint55_linear_147_4419)" stroke="#1A0D23" stroke-width="2.5" stroke-linejoin="round"/>
<path d="M681.25 281.25H781.25L881.25 241.25L1021.25 301.25L1161.25 381.25L1301.25 401.25H1121.25L921.25 381.25L801.25 301.25L681.25 281.25Z" fill="url(#paint56_linear_147_4419)" stroke="#1A0D23" stroke-width="2.5" stroke-linejoin="round"/>
<path d="M1021.25 201.25L1161.25 221.25L1281.25 281.25L1401.25 361.25L1481.25 401.25H1301.25L1161.25 381.25L1021.25 301.25L881.25 241.25L1021.25 201.25Z" fill="url(#paint57_linear_147_4419)" stroke="#1A0D23" stroke-width="2.5" stroke-linejoin="round"/>
<path d="M1281.25 281.25L1481.25 241.25V401.25L1401.25 361.25L1281.25 281.25Z" fill="url(#paint58_linear_147_4419)" stroke="#1A0D23" stroke-width="2.5" stroke-linejoin="round"/>
<path d="M1.25012 141.25L141.25 171.25L241.25 181.25L341.25 151.25L441.25 111.25L541.25 51.25L501.25 61.25L401.25 101.25L301.25 141.25L221.25 161.25L121.25 141.25L1.25012 121.25V141.25Z" fill="url(#paint59_linear_147_4419)" stroke="#1A0D23" stroke-width="2.5" stroke-linejoin="round"/>
<path d="M341.25 401.25H441.25L541.25 361.25L641.25 311.25L741.25 291.25L701.25 301.25L581.25 321.25L481.25 361.25L381.25 381.25L341.25 401.25Z" fill="url(#paint60_linear_147_4419)" stroke="#1A0D23" stroke-width="2.5" stroke-linejoin="round"/>
<path d="M781.25 281.25L881.25 241.25L1021.25 301.25L1071.25 281.25L971.25 221.25H871.25L771.25 261.25L781.25 281.25Z" fill="url(#paint61_linear_147_4419)" stroke="#1A0D23" stroke-width="2.5" stroke-linejoin="round"/>
<path d="M1161.25 221.25L1281.25 281.25L1401.25 361.25L1441.25 321.25L1321.25 241.25L1201.25 201.25L1161.25 221.25Z" fill="url(#paint62_linear_147_4419)" stroke="#1A0D23" stroke-width="2.5" stroke-linejoin="round"/>
<path d="M91.2501 271.25L111.25 261.25L131.25 271.25V291.25L111.25 301.25L91.2501 291.25V271.25Z" fill="url(#paint63_linear_147_4419)" stroke="#1A0D23" stroke-width="2.5" stroke-linejoin="round"/>
<path d="M121.25 301.25L136.25 296.25L146.25 306.25L141.25 321.25L126.25 326.25L116.25 316.25L121.25 301.25Z" fill="url(#paint64_linear_147_4419)" stroke="#1A0D23" stroke-width="2.5" stroke-linejoin="round"/>
<path d="M156.25 316.25L166.25 311.25L176.25 316.25V326.25L166.25 331.25L156.25 326.25V316.25Z" fill="url(#paint65_linear_147_4419)" stroke="#1A0D23" stroke-width="2.5" stroke-linejoin="round"/>
<path d="M461.25 211.25L481.25 206.25L491.25 221.25L481.25 236.25L461.25 231.25L456.25 221.25L461.25 211.25Z" fill="url(#paint66_linear_147_4419)" stroke="#1A0D23" stroke-width="2.5" stroke-linejoin="round"/>
<path d="M501.25 191.25L516.25 186.25L526.25 196.25L521.25 211.25H506.25L496.25 201.25L501.25 191.25Z" fill="url(#paint67_linear_147_4419)" stroke="#1A0D23" stroke-width="2.5" stroke-linejoin="round"/>
<path d="M711.25 246.25L726.25 241.25L736.25 251.25L731.25 266.25H716.25L706.25 256.25L711.25 246.25Z" fill="url(#paint68_linear_147_4419)" stroke="#1A0D23" stroke-width="2.5" stroke-linejoin="round"/>
<path d="M1061.25 296.25L1076.25 291.25L1086.25 301.25L1081.25 316.25H1066.25L1056.25 306.25L1061.25 296.25Z" fill="url(#paint69_linear_147_4419)" stroke="#1A0D23" stroke-width="2.5" stroke-linejoin="round"/>
<path d="M1111.25 316.25L1121.25 311.25L1131.25 316.25V326.25L1121.25 331.25L1111.25 326.25V316.25Z" fill="url(#paint70_linear_147_4419)" stroke="#1A0D23" stroke-width="2.5" stroke-linejoin="round"/>
<path d="M1041.25 341.25L1051.25 336.25L1061.25 346.25L1056.25 356.25H1046.25L1036.25 346.25L1041.25 341.25Z" fill="url(#paint71_linear_147_4419)" stroke="#1A0D23" stroke-width="2.5" stroke-linejoin="round"/>
<path d="M1326.25 231.25L1346.25 226.25L1361.25 241.25L1356.25 261.25L1336.25 266.25L1321.25 251.25L1326.25 231.25Z" fill="url(#paint72_linear_147_4419)" stroke="#1A0D23" stroke-width="2.5" stroke-linejoin="round"/>
<path d="M421.25 21.25H21.2501V401.25H421.25V21.25Z" fill="url(#paint73_radial_147_4419)"/>
<path d="M1461.25 21.25H1061.25V401.25H1461.25V21.25Z" fill="url(#paint74_radial_147_4419)"/>
<defs>
<linearGradient id="paint0_linear_147_4419" x1="21.2501" y1="21.25" x2="1461.25" y2="21.25" gradientUnits="userSpaceOnUse">
<stop stop-color="#EC7E80"/>
<stop offset="0.35" stop-color="#98327A"/>
<stop offset="0.7" stop-color="#431063"/>
<stop offset="1" stop-color="#090013"/>
</linearGradient>
<linearGradient id="paint1_linear_147_4419" x1="21.2501" y1="21.25" x2="1461.25" y2="21.25" gradientUnits="userSpaceOnUse">
<stop stop-color="#B93F77"/>
<stop offset="0.5" stop-color="#5E1A72"/>
<stop offset="1" stop-color="#11021F"/>
</linearGradient>
<linearGradient id="paint2_linear_147_4419" x1="21.2501" y1="21.25" x2="1461.25" y2="21.25" gradientUnits="userSpaceOnUse">
<stop stop-color="#B93F77"/>
<stop offset="0.5" stop-color="#5E1A72"/>
<stop offset="1" stop-color="#11021F"/>
</linearGradient>
<linearGradient id="paint3_linear_147_4419" x1="21.2501" y1="21.25" x2="1461.25" y2="21.25" gradientUnits="userSpaceOnUse">
<stop stop-color="#FBD4C6"/>
<stop offset="0.25" stop-color="#D65671"/>
<stop offset="0.55" stop-color="#7A257A"/>
<stop offset="0.85" stop-color="#431063"/>
<stop offset="1" stop-color="#170238"/>
</linearGradient>
<linearGradient id="paint4_linear_147_4419" x1="21.2501" y1="21.25" x2="1461.25" y2="21.25" gradientUnits="userSpaceOnUse">
<stop stop-color="#EC7E80"/>
<stop offset="0.35" stop-color="#98327A"/>
<stop offset="0.7" stop-color="#431063"/>
<stop offset="1" stop-color="#090013"/>
</linearGradient>
<linearGradient id="paint5_linear_147_4419" x1="21.2501" y1="21.25" x2="1461.25" y2="21.25" gradientUnits="userSpaceOnUse">
<stop stop-color="#B93F77"/>
<stop offset="0.5" stop-color="#5E1A72"/>
<stop offset="1" stop-color="#11021F"/>
</linearGradient>
<linearGradient id="paint6_linear_147_4419" x1="21.2501" y1="21.25" x2="1461.25" y2="21.25" gradientUnits="userSpaceOnUse">
<stop stop-color="#EC7E80"/>
<stop offset="0.35" stop-color="#98327A"/>
<stop offset="0.7" stop-color="#431063"/>
<stop offset="1" stop-color="#090013"/>
</linearGradient>
<linearGradient id="paint7_linear_147_4419" x1="21.2501" y1="21.25" x2="1461.25" y2="21.25" gradientUnits="userSpaceOnUse">
<stop stop-color="#FBD4C6"/>
<stop offset="0.25" stop-color="#D65671"/>
<stop offset="0.55" stop-color="#7A257A"/>
<stop offset="0.85" stop-color="#431063"/>
<stop offset="1" stop-color="#170238"/>
</linearGradient>
<linearGradient id="paint8_linear_147_4419" x1="21.2501" y1="21.25" x2="1461.25" y2="21.25" gradientUnits="userSpaceOnUse">
<stop stop-color="#FEE9E1"/>
<stop offset="0.3" stop-color="#F5A895"/>
<stop offset="0.6" stop-color="#98327A"/>
<stop offset="0.9" stop-color="#5E1A72"/>
<stop offset="1" stop-color="#2C0850"/>
</linearGradient>
<linearGradient id="paint9_linear_147_4419" x1="21.2501" y1="21.25" x2="1461.25" y2="21.25" gradientUnits="userSpaceOnUse">
<stop stop-color="#FBD4C6"/>
<stop offset="0.25" stop-color="#D65671"/>
<stop offset="0.55" stop-color="#7A257A"/>
<stop offset="0.85" stop-color="#431063"/>
<stop offset="1" stop-color="#170238"/>
</linearGradient>
<linearGradient id="paint10_linear_147_4419" x1="21.2501" y1="21.25" x2="1461.25" y2="21.25" gradientUnits="userSpaceOnUse">
<stop stop-color="#FEE9E1"/>
<stop offset="0.3" stop-color="#F5A895"/>
<stop offset="0.6" stop-color="#98327A"/>
<stop offset="0.9" stop-color="#5E1A72"/>
<stop offset="1" stop-color="#2C0850"/>
</linearGradient>
<linearGradient id="paint11_linear_147_4419" x1="21.2501" y1="21.25" x2="1461.25" y2="21.25" gradientUnits="userSpaceOnUse">
<stop stop-color="#EC7E80"/>
<stop offset="0.35" stop-color="#98327A"/>
<stop offset="0.7" stop-color="#431063"/>
<stop offset="1" stop-color="#090013"/>
</linearGradient>
<linearGradient id="paint12_linear_147_4419" x1="21.2501" y1="21.25" x2="1461.25" y2="21.25" gradientUnits="userSpaceOnUse">
<stop stop-color="#FEE9E1"/>
<stop offset="0.3" stop-color="#F5A895"/>
<stop offset="0.6" stop-color="#98327A"/>
<stop offset="0.9" stop-color="#5E1A72"/>
<stop offset="1" stop-color="#2C0850"/>
</linearGradient>
<linearGradient id="paint13_linear_147_4419" x1="21.2501" y1="21.25" x2="1461.25" y2="21.25" gradientUnits="userSpaceOnUse">
<stop stop-color="#B93F77"/>
<stop offset="0.5" stop-color="#5E1A72"/>
<stop offset="1" stop-color="#11021F"/>
</linearGradient>
<linearGradient id="paint14_linear_147_4419" x1="21.2501" y1="21.25" x2="1461.25" y2="21.25" gradientUnits="userSpaceOnUse">
<stop stop-color="#EC7E80"/>
<stop offset="0.35" stop-color="#98327A"/>
<stop offset="0.7" stop-color="#431063"/>
<stop offset="1" stop-color="#090013"/>
</linearGradient>
<linearGradient id="paint15_linear_147_4419" x1="21.2501" y1="21.25" x2="1461.25" y2="21.25" gradientUnits="userSpaceOnUse">
<stop stop-color="#FBD4C6"/>
<stop offset="0.25" stop-color="#D65671"/>
<stop offset="0.55" stop-color="#7A257A"/>
<stop offset="0.85" stop-color="#431063"/>
<stop offset="1" stop-color="#170238"/>
</linearGradient>
<linearGradient id="paint16_linear_147_4419" x1="21.2501" y1="21.25" x2="1461.25" y2="21.25" gradientUnits="userSpaceOnUse">
<stop stop-color="#FEE9E1"/>
<stop offset="0.3" stop-color="#F5A895"/>
<stop offset="0.6" stop-color="#98327A"/>
<stop offset="0.9" stop-color="#5E1A72"/>
<stop offset="1" stop-color="#2C0850"/>
</linearGradient>
<linearGradient id="paint17_linear_147_4419" x1="21.2501" y1="21.25" x2="1461.25" y2="21.25" gradientUnits="userSpaceOnUse">
<stop stop-color="#FBD4C6"/>
<stop offset="0.25" stop-color="#D65671"/>
<stop offset="0.55" stop-color="#7A257A"/>
<stop offset="0.85" stop-color="#431063"/>
<stop offset="1" stop-color="#170238"/>
</linearGradient>
<linearGradient id="paint18_linear_147_4419" x1="21.2501" y1="21.25" x2="1461.25" y2="21.25" gradientUnits="userSpaceOnUse">
<stop stop-color="#EC7E80"/>
<stop offset="0.35" stop-color="#98327A"/>
<stop offset="0.7" stop-color="#431063"/>
<stop offset="1" stop-color="#090013"/>
</linearGradient>
<linearGradient id="paint19_linear_147_4419" x1="21.2501" y1="21.25" x2="1461.25" y2="21.25" gradientUnits="userSpaceOnUse">
<stop stop-color="#FEE9E1"/>
<stop offset="0.3" stop-color="#F5A895"/>
<stop offset="0.6" stop-color="#98327A"/>
<stop offset="0.9" stop-color="#5E1A72"/>
<stop offset="1" stop-color="#2C0850"/>
</linearGradient>
<linearGradient id="paint20_linear_147_4419" x1="21.2501" y1="21.25" x2="1461.25" y2="21.25" gradientUnits="userSpaceOnUse">
<stop stop-color="#FBD4C6"/>
<stop offset="0.25" stop-color="#D65671"/>
<stop offset="0.55" stop-color="#7A257A"/>
<stop offset="0.85" stop-color="#431063"/>
<stop offset="1" stop-color="#170238"/>
</linearGradient>
<linearGradient id="paint21_linear_147_4419" x1="21.2501" y1="21.25" x2="1461.25" y2="21.25" gradientUnits="userSpaceOnUse">
<stop stop-color="#B93F77"/>
<stop offset="0.5" stop-color="#5E1A72"/>
<stop offset="1" stop-color="#11021F"/>
</linearGradient>
<linearGradient id="paint22_linear_147_4419" x1="21.2501" y1="21.25" x2="1461.25" y2="21.25" gradientUnits="userSpaceOnUse">
<stop stop-color="#EC7E80"/>
<stop offset="0.35" stop-color="#98327A"/>
<stop offset="0.7" stop-color="#431063"/>
<stop offset="1" stop-color="#090013"/>
</linearGradient>
<linearGradient id="paint23_linear_147_4419" x1="21.2501" y1="21.25" x2="1461.25" y2="21.25" gradientUnits="userSpaceOnUse">
<stop stop-color="#FBD4C6"/>
<stop offset="0.25" stop-color="#D65671"/>
<stop offset="0.55" stop-color="#7A257A"/>
<stop offset="0.85" stop-color="#431063"/>
<stop offset="1" stop-color="#170238"/>
</linearGradient>
<linearGradient id="paint24_linear_147_4419" x1="21.2501" y1="21.25" x2="1461.25" y2="21.25" gradientUnits="userSpaceOnUse">
<stop stop-color="#FEE9E1"/>
<stop offset="0.3" stop-color="#F5A895"/>
<stop offset="0.6" stop-color="#98327A"/>
<stop offset="0.9" stop-color="#5E1A72"/>
<stop offset="1" stop-color="#2C0850"/>
</linearGradient>
<linearGradient id="paint25_linear_147_4419" x1="21.2501" y1="21.25" x2="1461.25" y2="21.25" gradientUnits="userSpaceOnUse">
<stop stop-color="#FBD4C6"/>
<stop offset="0.25" stop-color="#D65671"/>
<stop offset="0.55" stop-color="#7A257A"/>
<stop offset="0.85" stop-color="#431063"/>
<stop offset="1" stop-color="#170238"/>
</linearGradient>
<linearGradient id="paint26_linear_147_4419" x1="21.2501" y1="21.25" x2="1461.25" y2="21.25" gradientUnits="userSpaceOnUse">
<stop stop-color="#EC7E80"/>
<stop offset="0.35" stop-color="#98327A"/>
<stop offset="0.7" stop-color="#431063"/>
<stop offset="1" stop-color="#090013"/>
</linearGradient>
<linearGradient id="paint27_linear_147_4419" x1="21.2501" y1="21.25" x2="1461.25" y2="21.25" gradientUnits="userSpaceOnUse">
<stop stop-color="#FEE9E1"/>
<stop offset="0.3" stop-color="#F5A895"/>
<stop offset="0.6" stop-color="#98327A"/>
<stop offset="0.9" stop-color="#5E1A72"/>
<stop offset="1" stop-color="#2C0850"/>
</linearGradient>
<linearGradient id="paint28_linear_147_4419" x1="21.2502" y1="21.25" x2="1461.25" y2="21.25" gradientUnits="userSpaceOnUse">
<stop stop-color="#FBD4C6"/>
<stop offset="0.25" stop-color="#D65671"/>
<stop offset="0.55" stop-color="#7A257A"/>
<stop offset="0.85" stop-color="#431063"/>
<stop offset="1" stop-color="#170238"/>
</linearGradient>
<linearGradient id="paint29_linear_147_4419" x1="21.2501" y1="21.25" x2="1461.25" y2="21.25" gradientUnits="userSpaceOnUse">
<stop stop-color="#EC7E80"/>
<stop offset="0.35" stop-color="#98327A"/>
<stop offset="0.7" stop-color="#431063"/>
<stop offset="1" stop-color="#090013"/>
</linearGradient>
<linearGradient id="paint30_linear_147_4419" x1="21.2502" y1="21.25" x2="1461.25" y2="21.25" gradientUnits="userSpaceOnUse">
<stop stop-color="#FEE9E1"/>
<stop offset="0.3" stop-color="#F5A895"/>
<stop offset="0.6" stop-color="#98327A"/>
<stop offset="0.9" stop-color="#5E1A72"/>
<stop offset="1" stop-color="#2C0850"/>
</linearGradient>
<linearGradient id="paint31_linear_147_4419" x1="21.2501" y1="21.25" x2="1461.25" y2="21.25" gradientUnits="userSpaceOnUse">
<stop stop-color="#B93F77"/>
<stop offset="0.5" stop-color="#5E1A72"/>
<stop offset="1" stop-color="#11021F"/>
</linearGradient>
<linearGradient id="paint32_linear_147_4419" x1="21.2502" y1="21.25" x2="1461.25" y2="21.25" gradientUnits="userSpaceOnUse">
<stop stop-color="#EC7E80"/>
<stop offset="0.35" stop-color="#98327A"/>
<stop offset="0.7" stop-color="#431063"/>
<stop offset="1" stop-color="#090013"/>
</linearGradient>
<linearGradient id="paint33_linear_147_4419" x1="21.2501" y1="21.25" x2="1461.25" y2="21.25" gradientUnits="userSpaceOnUse">
<stop stop-color="#FBD4C6"/>
<stop offset="0.25" stop-color="#D65671"/>
<stop offset="0.55" stop-color="#7A257A"/>
<stop offset="0.85" stop-color="#431063"/>
<stop offset="1" stop-color="#170238"/>
</linearGradient>
<linearGradient id="paint34_linear_147_4419" x1="21.2501" y1="21.25" x2="1461.25" y2="21.25" gradientUnits="userSpaceOnUse">
<stop stop-color="#FEE9E1"/>
<stop offset="0.3" stop-color="#F5A895"/>
<stop offset="0.6" stop-color="#98327A"/>
<stop offset="0.9" stop-color="#5E1A72"/>
<stop offset="1" stop-color="#2C0850"/>
</linearGradient>
<linearGradient id="paint35_linear_147_4419" x1="21.2501" y1="21.25" x2="1461.25" y2="21.25" gradientUnits="userSpaceOnUse">
<stop stop-color="#FBD4C6"/>
<stop offset="0.25" stop-color="#D65671"/>
<stop offset="0.55" stop-color="#7A257A"/>
<stop offset="0.85" stop-color="#431063"/>
<stop offset="1" stop-color="#170238"/>
</linearGradient>
<linearGradient id="paint36_linear_147_4419" x1="21.2502" y1="21.25" x2="1461.25" y2="21.25" gradientUnits="userSpaceOnUse">
<stop stop-color="#EC7E80"/>
<stop offset="0.35" stop-color="#98327A"/>
<stop offset="0.7" stop-color="#431063"/>
<stop offset="1" stop-color="#090013"/>
</linearGradient>
<linearGradient id="paint37_linear_147_4419" x1="21.2501" y1="21.25" x2="1461.25" y2="21.25" gradientUnits="userSpaceOnUse">
<stop stop-color="#FEE9E1"/>
<stop offset="0.3" stop-color="#F5A895"/>
<stop offset="0.6" stop-color="#98327A"/>
<stop offset="0.9" stop-color="#5E1A72"/>
<stop offset="1" stop-color="#2C0850"/>
</linearGradient>
<linearGradient id="paint38_linear_147_4419" x1="21.2501" y1="21.25" x2="1461.25" y2="21.25" gradientUnits="userSpaceOnUse">
<stop stop-color="#FBD4C6"/>
<stop offset="0.25" stop-color="#D65671"/>
<stop offset="0.55" stop-color="#7A257A"/>
<stop offset="0.85" stop-color="#431063"/>
<stop offset="1" stop-color="#170238"/>
</linearGradient>
<linearGradient id="paint39_linear_147_4419" x1="21.2501" y1="21.25" x2="1461.25" y2="21.25" gradientUnits="userSpaceOnUse">
<stop stop-color="#FBD4C6"/>
<stop offset="0.25" stop-color="#D65671"/>
<stop offset="0.55" stop-color="#7A257A"/>
<stop offset="0.85" stop-color="#431063"/>
<stop offset="1" stop-color="#170238"/>
</linearGradient>
<linearGradient id="paint40_linear_147_4419" x1="21.2501" y1="21.25" x2="1461.25" y2="21.25" gradientUnits="userSpaceOnUse">
<stop stop-color="#FEE9E1"/>
<stop offset="0.3" stop-color="#F5A895"/>
<stop offset="0.6" stop-color="#98327A"/>
<stop offset="0.9" stop-color="#5E1A72"/>
<stop offset="1" stop-color="#2C0850"/>
</linearGradient>
<linearGradient id="paint41_linear_147_4419" x1="21.2501" y1="21.25" x2="1461.25" y2="21.25" gradientUnits="userSpaceOnUse">
<stop stop-color="#FBD4C6"/>
<stop offset="0.25" stop-color="#D65671"/>
<stop offset="0.55" stop-color="#7A257A"/>
<stop offset="0.85" stop-color="#431063"/>
<stop offset="1" stop-color="#170238"/>
</linearGradient>
<linearGradient id="paint42_linear_147_4419" x1="21.2501" y1="21.25" x2="1461.25" y2="21.25" gradientUnits="userSpaceOnUse">
<stop stop-color="#EC7E80"/>
<stop offset="0.35" stop-color="#98327A"/>
<stop offset="0.7" stop-color="#431063"/>
<stop offset="1" stop-color="#090013"/>
</linearGradient>
<linearGradient id="paint43_linear_147_4419" x1="21.2501" y1="21.25" x2="1461.25" y2="21.25" gradientUnits="userSpaceOnUse">
<stop stop-color="#FBD4C6"/>
<stop offset="0.25" stop-color="#D65671"/>
<stop offset="0.55" stop-color="#7A257A"/>
<stop offset="0.85" stop-color="#431063"/>
<stop offset="1" stop-color="#170238"/>
</linearGradient>
<linearGradient id="paint44_linear_147_4419" x1="21.2501" y1="21.25" x2="1461.25" y2="21.25" gradientUnits="userSpaceOnUse">
<stop stop-color="#FBD4C6"/>
<stop offset="0.25" stop-color="#D65671"/>
<stop offset="0.55" stop-color="#7A257A"/>
<stop offset="0.85" stop-color="#431063"/>
<stop offset="1" stop-color="#170238"/>
</linearGradient>
<linearGradient id="paint45_linear_147_4419" x1="21.2501" y1="21.25" x2="1461.25" y2="21.25" gradientUnits="userSpaceOnUse">
<stop stop-color="#FEE9E1"/>
<stop offset="0.3" stop-color="#F5A895"/>
<stop offset="0.6" stop-color="#98327A"/>
<stop offset="0.9" stop-color="#5E1A72"/>
<stop offset="1" stop-color="#2C0850"/>
</linearGradient>
<linearGradient id="paint46_linear_147_4419" x1="21.2501" y1="21.25" x2="1461.25" y2="21.25" gradientUnits="userSpaceOnUse">
<stop stop-color="#FBD4C6"/>
<stop offset="0.25" stop-color="#D65671"/>
<stop offset="0.55" stop-color="#7A257A"/>
<stop offset="0.85" stop-color="#431063"/>
<stop offset="1" stop-color="#170238"/>
</linearGradient>
<linearGradient id="paint47_linear_147_4419" x1="21.2501" y1="21.25" x2="1461.25" y2="21.25" gradientUnits="userSpaceOnUse">
<stop stop-color="#EC7E80"/>
<stop offset="0.35" stop-color="#98327A"/>
<stop offset="0.7" stop-color="#431063"/>
<stop offset="1" stop-color="#090013"/>
</linearGradient>
<linearGradient id="paint48_linear_147_4419" x1="21.2501" y1="21.25" x2="1461.25" y2="21.25" gradientUnits="userSpaceOnUse">
<stop stop-color="#FEE9E1"/>
<stop offset="0.3" stop-color="#F5A895"/>
<stop offset="0.6" stop-color="#98327A"/>
<stop offset="0.9" stop-color="#5E1A72"/>
<stop offset="1" stop-color="#2C0850"/>
</linearGradient>
<linearGradient id="paint49_linear_147_4419" x1="21.2501" y1="21.25" x2="1461.25" y2="21.25" gradientUnits="userSpaceOnUse">
<stop stop-color="#FBD4C6"/>
<stop offset="0.25" stop-color="#D65671"/>
<stop offset="0.55" stop-color="#7A257A"/>
<stop offset="0.85" stop-color="#431063"/>
<stop offset="1" stop-color="#170238"/>
</linearGradient>
<linearGradient id="paint50_linear_147_4419" x1="21.2502" y1="21.25" x2="1461.25" y2="21.25" gradientUnits="userSpaceOnUse">
<stop stop-color="#EC7E80"/>
<stop offset="0.35" stop-color="#98327A"/>
<stop offset="0.7" stop-color="#431063"/>
<stop offset="1" stop-color="#090013"/>
</linearGradient>
<linearGradient id="paint51_linear_147_4419" x1="21.2502" y1="21.25" x2="1461.25" y2="21.25" gradientUnits="userSpaceOnUse">
<stop stop-color="#FBD4C6"/>
<stop offset="0.25" stop-color="#D65671"/>
<stop offset="0.55" stop-color="#7A257A"/>
<stop offset="0.85" stop-color="#431063"/>
<stop offset="1" stop-color="#170238"/>
</linearGradient>
<linearGradient id="paint52_linear_147_4419" x1="21.2501" y1="21.25" x2="1461.25" y2="21.25" gradientUnits="userSpaceOnUse">
<stop stop-color="#FEE9E1"/>
<stop offset="0.3" stop-color="#F5A895"/>
<stop offset="0.6" stop-color="#98327A"/>
<stop offset="0.9" stop-color="#5E1A72"/>
<stop offset="1" stop-color="#2C0850"/>
</linearGradient>
<linearGradient id="paint53_linear_147_4419" x1="21.2502" y1="21.25" x2="1461.25" y2="21.25" gradientUnits="userSpaceOnUse">
<stop stop-color="#FBD4C6"/>
<stop offset="0.25" stop-color="#D65671"/>
<stop offset="0.55" stop-color="#7A257A"/>
<stop offset="0.85" stop-color="#431063"/>
<stop offset="1" stop-color="#170238"/>
</linearGradient>
<linearGradient id="paint54_linear_147_4419" x1="21.2501" y1="21.2501" x2="1461.25" y2="21.2501" gradientUnits="userSpaceOnUse">
<stop stop-color="#FBD4C6"/>
<stop offset="0.25" stop-color="#D65671"/>
<stop offset="0.55" stop-color="#7A257A"/>
<stop offset="0.85" stop-color="#431063"/>
<stop offset="1" stop-color="#170238"/>
</linearGradient>
<linearGradient id="paint55_linear_147_4419" x1="21.2501" y1="21.25" x2="1461.25" y2="21.25" gradientUnits="userSpaceOnUse">
<stop stop-color="#FEE9E1"/>
<stop offset="0.3" stop-color="#F5A895"/>
<stop offset="0.6" stop-color="#98327A"/>
<stop offset="0.9" stop-color="#5E1A72"/>
<stop offset="1" stop-color="#2C0850"/>
</linearGradient>
<linearGradient id="paint56_linear_147_4419" x1="21.2501" y1="21.25" x2="1461.25" y2="21.25" gradientUnits="userSpaceOnUse">
<stop stop-color="#FBD4C6"/>
<stop offset="0.25" stop-color="#D65671"/>
<stop offset="0.55" stop-color="#7A257A"/>
<stop offset="0.85" stop-color="#431063"/>
<stop offset="1" stop-color="#170238"/>
</linearGradient>
<linearGradient id="paint57_linear_147_4419" x1="21.2501" y1="21.25" x2="1461.25" y2="21.25" gradientUnits="userSpaceOnUse">
<stop stop-color="#EC7E80"/>
<stop offset="0.35" stop-color="#98327A"/>
<stop offset="0.7" stop-color="#431063"/>
<stop offset="1" stop-color="#090013"/>
</linearGradient>
<linearGradient id="paint58_linear_147_4419" x1="21.2502" y1="21.25" x2="1461.25" y2="21.25" gradientUnits="userSpaceOnUse">
<stop stop-color="#FBD4C6"/>
<stop offset="0.25" stop-color="#D65671"/>
<stop offset="0.55" stop-color="#7A257A"/>
<stop offset="0.85" stop-color="#431063"/>
<stop offset="1" stop-color="#170238"/>
</linearGradient>
<linearGradient id="paint59_linear_147_4419" x1="21.2501" y1="21.25" x2="1461.25" y2="21.25" gradientUnits="userSpaceOnUse">
<stop stop-color="#FEE9E1"/>
<stop offset="0.3" stop-color="#F5A895"/>
<stop offset="0.6" stop-color="#98327A"/>
<stop offset="0.9" stop-color="#5E1A72"/>
<stop offset="1" stop-color="#2C0850"/>
</linearGradient>
<linearGradient id="paint60_linear_147_4419" x1="21.2501" y1="21.25" x2="1461.25" y2="21.25" gradientUnits="userSpaceOnUse">
<stop stop-color="#EC7E80"/>
<stop offset="0.35" stop-color="#98327A"/>
<stop offset="0.7" stop-color="#431063"/>
<stop offset="1" stop-color="#090013"/>
</linearGradient>
<linearGradient id="paint61_linear_147_4419" x1="21.2501" y1="21.25" x2="1461.25" y2="21.25" gradientUnits="userSpaceOnUse">
<stop stop-color="#FBD4C6"/>
<stop offset="0.25" stop-color="#D65671"/>
<stop offset="0.55" stop-color="#7A257A"/>
<stop offset="0.85" stop-color="#431063"/>
<stop offset="1" stop-color="#170238"/>
</linearGradient>
<linearGradient id="paint62_linear_147_4419" x1="21.2501" y1="21.25" x2="1461.25" y2="21.25" gradientUnits="userSpaceOnUse">
<stop stop-color="#FEE9E1"/>
<stop offset="0.3" stop-color="#F5A895"/>
<stop offset="0.6" stop-color="#98327A"/>
<stop offset="0.9" stop-color="#5E1A72"/>
<stop offset="1" stop-color="#2C0850"/>
</linearGradient>
<linearGradient id="paint63_linear_147_4419" x1="21.2501" y1="21.25" x2="1461.25" y2="21.25" gradientUnits="userSpaceOnUse">
<stop stop-color="#FEE9E1"/>
<stop offset="0.3" stop-color="#F5A895"/>
<stop offset="0.6" stop-color="#98327A"/>
<stop offset="0.9" stop-color="#5E1A72"/>
<stop offset="1" stop-color="#2C0850"/>
</linearGradient>
<linearGradient id="paint64_linear_147_4419" x1="21.2501" y1="21.25" x2="1461.25" y2="21.25" gradientUnits="userSpaceOnUse">
<stop stop-color="#FBD4C6"/>
<stop offset="0.25" stop-color="#D65671"/>
<stop offset="0.55" stop-color="#7A257A"/>
<stop offset="0.85" stop-color="#431063"/>
<stop offset="1" stop-color="#170238"/>
</linearGradient>
<linearGradient id="paint65_linear_147_4419" x1="21.2501" y1="21.25" x2="1461.25" y2="21.25" gradientUnits="userSpaceOnUse">
<stop stop-color="#EC7E80"/>
<stop offset="0.35" stop-color="#98327A"/>
<stop offset="0.7" stop-color="#431063"/>
<stop offset="1" stop-color="#090013"/>
</linearGradient>
<linearGradient id="paint66_linear_147_4419" x1="21.2501" y1="21.25" x2="1461.25" y2="21.25" gradientUnits="userSpaceOnUse">
<stop stop-color="#FBD4C6"/>
<stop offset="0.25" stop-color="#D65671"/>
<stop offset="0.55" stop-color="#7A257A"/>
<stop offset="0.85" stop-color="#431063"/>
<stop offset="1" stop-color="#170238"/>
</linearGradient>
<linearGradient id="paint67_linear_147_4419" x1="21.2501" y1="21.25" x2="1461.25" y2="21.25" gradientUnits="userSpaceOnUse">
<stop stop-color="#FEE9E1"/>
<stop offset="0.3" stop-color="#F5A895"/>
<stop offset="0.6" stop-color="#98327A"/>
<stop offset="0.9" stop-color="#5E1A72"/>
<stop offset="1" stop-color="#2C0850"/>
</linearGradient>
<linearGradient id="paint68_linear_147_4419" x1="21.2501" y1="21.25" x2="1461.25" y2="21.25" gradientUnits="userSpaceOnUse">
<stop stop-color="#EC7E80"/>
<stop offset="0.35" stop-color="#98327A"/>
<stop offset="0.7" stop-color="#431063"/>
<stop offset="1" stop-color="#090013"/>
</linearGradient>
<linearGradient id="paint69_linear_147_4419" x1="21.2502" y1="21.25" x2="1461.25" y2="21.25" gradientUnits="userSpaceOnUse">
<stop stop-color="#FBD4C6"/>
<stop offset="0.25" stop-color="#D65671"/>
<stop offset="0.55" stop-color="#7A257A"/>
<stop offset="0.85" stop-color="#431063"/>
<stop offset="1" stop-color="#170238"/>
</linearGradient>
<linearGradient id="paint70_linear_147_4419" x1="21.2502" y1="21.25" x2="1461.25" y2="21.25" gradientUnits="userSpaceOnUse">
<stop stop-color="#FEE9E1"/>
<stop offset="0.3" stop-color="#F5A895"/>
<stop offset="0.6" stop-color="#98327A"/>
<stop offset="0.9" stop-color="#5E1A72"/>
<stop offset="1" stop-color="#2C0850"/>
</linearGradient>
<linearGradient id="paint71_linear_147_4419" x1="21.2502" y1="21.25" x2="1461.25" y2="21.25" gradientUnits="userSpaceOnUse">
<stop stop-color="#EC7E80"/>
<stop offset="0.35" stop-color="#98327A"/>
<stop offset="0.7" stop-color="#431063"/>
<stop offset="1" stop-color="#090013"/>
</linearGradient>
<linearGradient id="paint72_linear_147_4419" x1="21.2501" y1="21.25" x2="1461.25" y2="21.25" gradientUnits="userSpaceOnUse">
<stop stop-color="#FBD4C6"/>
<stop offset="0.25" stop-color="#D65671"/>
<stop offset="0.55" stop-color="#7A257A"/>
<stop offset="0.85" stop-color="#431063"/>
<stop offset="1" stop-color="#170238"/>
</linearGradient>
<radialGradient id="paint73_radial_147_4419" cx="0" cy="0" r="1" gradientUnits="userSpaceOnUse" gradientTransform="translate(21.2501 211.25) scale(200 190)">
<stop stop-color="white" stop-opacity="0.4"/>
<stop offset="1" stop-color="white" stop-opacity="0"/>
</radialGradient>
<radialGradient id="paint74_radial_147_4419" cx="0" cy="0" r="1" gradientUnits="userSpaceOnUse" gradientTransform="translate(1461.25 211.25) scale(200 190)">
<stop stop-color="white" stop-opacity="0.25"/>
<stop offset="1" stop-color="white" stop-opacity="0"/>
</radialGradient>
</defs>
</svg>
