<svg width="1440" height="380" viewBox="0 0 1440 380" fill="none" xmlns="http://www.w3.org/2000/svg">
<g clip-path="url(#clip0_143_4247)">
<path d="M-20 -20H200L150 150L-20 100V-20Z" fill="url(#paint0_linear_143_4247)" stroke="#1C1228" stroke-width="1.5" stroke-linejoin="bevel"/>
<path opacity="0.25" d="M-20 -20H200L150 150L-20 100V-20Z" fill="black" stroke="#1C1228" stroke-width="1.5" stroke-linejoin="bevel"/>
<path d="M100 -20H350L400 220L250 180L100 -20Z" fill="url(#paint1_linear_143_4247)" stroke="#1C1228" stroke-width="1.5" stroke-linejoin="bevel"/>
<path opacity="0.05" d="M100 -20H350L400 220L250 180L100 -20Z" fill="white" stroke="#1C1228" stroke-width="1.5" stroke-linejoin="bevel"/>
<path d="M280 -20H600L550 160L380 200L280 -20Z" fill="url(#paint2_linear_143_4247)" stroke="#1C1228" stroke-width="1.5" stroke-linejoin="bevel"/>
<path opacity="0.35" d="M280 -20H600L550 160L380 200L280 -20Z" fill="black" stroke="#1C1228" stroke-width="1.5" stroke-linejoin="bevel"/>
<path d="M500 -20H900L850 220L600 140L500 -20Z" fill="url(#paint3_linear_143_4247)" stroke="#1C1228" stroke-width="1.5" stroke-linejoin="bevel"/>
<path opacity="0.1" d="M500 -20H900L850 220L600 140L500 -20Z" fill="white" stroke="#1C1228" stroke-width="1.5" stroke-linejoin="bevel"/>
<path d="M800 -20H1200L1150 190L950 250L800 -20Z" fill="url(#paint4_linear_143_4247)" stroke="#1C1228" stroke-width="1.5" stroke-linejoin="bevel"/>
<path opacity="0.4" d="M800 -20H1200L1150 190L950 250L800 -20Z" fill="black" stroke="#1C1228" stroke-width="1.5" stroke-linejoin="bevel"/>
<path d="M1100 -20H1500V260L1250 200L1100 -20Z" fill="url(#paint5_linear_143_4247)" stroke="#1C1228" stroke-width="1.5" stroke-linejoin="bevel"/>
<path opacity="0.25" d="M1100 -20H1500V260L1250 200L1100 -20Z" fill="black" stroke="#1C1228" stroke-width="1.5" stroke-linejoin="bevel"/>
<path d="M-20 -20H100L180 250L80 290L-20 200V-20Z" fill="url(#paint6_linear_143_4247)" stroke="#1C1228" stroke-width="1.5" stroke-linejoin="bevel"/>
<path opacity="0.15" d="M-20 -20H100L180 250L80 290L-20 200V-20Z" fill="white" stroke="#1C1228" stroke-width="1.5" stroke-linejoin="bevel"/>
<path d="M80 -20H280L380 290L220 320L80 -20Z" fill="url(#paint7_linear_143_4247)" stroke="#1C1228" stroke-width="1.5" stroke-linejoin="bevel"/>
<path opacity="0.15" d="M80 -20H280L380 290L220 320L80 -20Z" fill="black" stroke="#1C1228" stroke-width="1.5" stroke-linejoin="bevel"/>
<path d="M200 -20H500L550 280L320 230L200 -20Z" fill="url(#paint8_linear_143_4247)" stroke="#1C1228" stroke-width="1.5" stroke-linejoin="bevel"/>
<path opacity="0.25" d="M200 -20H500L550 280L320 230L200 -20Z" fill="black" stroke="#1C1228" stroke-width="1.5" stroke-linejoin="bevel"/>
<path d="M400 -20H650L700 340L450 280L400 -20Z" fill="url(#paint9_linear_143_4247)" stroke="#1C1228" stroke-width="1.5" stroke-linejoin="bevel"/>
<path opacity="0.05" d="M400 -20H650L700 340L450 280L400 -20Z" fill="white" stroke="#1C1228" stroke-width="1.5" stroke-linejoin="bevel"/>
<path d="M600 -20H850L800 320L650 350L600 -20Z" fill="url(#paint10_linear_143_4247)" stroke="#1C1228" stroke-width="1.5" stroke-linejoin="bevel"/>
<path opacity="0.45" d="M600 -20H850L800 320L650 350L600 -20Z" fill="black" stroke="#1C1228" stroke-width="1.5" stroke-linejoin="bevel"/>
<path d="M750 -20H1050L1150 360L900 280L750 -20Z" fill="url(#paint11_linear_143_4247)" stroke="#1C1228" stroke-width="1.5" stroke-linejoin="bevel"/>
<path opacity="0.2" d="M750 -20H1050L1150 360L900 280L750 -20Z" fill="black" stroke="#1C1228" stroke-width="1.5" stroke-linejoin="bevel"/>
<path d="M950 -20H1300L1350 330L1100 250L950 -20Z" fill="url(#paint12_linear_143_4247)" stroke="#1C1228" stroke-width="1.5" stroke-linejoin="bevel"/>
<path opacity="0.1" d="M950 -20H1300L1350 330L1100 250L950 -20Z" fill="white" stroke="#1C1228" stroke-width="1.5" stroke-linejoin="bevel"/>
<path d="M1200 -20H1500V350L1300 380L1200 -20Z" fill="url(#paint13_linear_143_4247)" stroke="#1C1228" stroke-width="1.5" stroke-linejoin="bevel"/>
<path opacity="0.3" d="M1200 -20H1500V350L1300 380L1200 -20Z" fill="black" stroke="#1C1228" stroke-width="1.5" stroke-linejoin="bevel"/>
<path d="M0 -20H150L220 120L180 180L50 240L0 220V-20Z" fill="url(#paint14_linear_143_4247)" stroke="#1C1228" stroke-width="1.5" stroke-linejoin="bevel"/>
<path opacity="0.4" d="M0 -20H150L220 120L180 180L50 240L0 220V-20Z" fill="black" stroke="#1C1228" stroke-width="1.5" stroke-linejoin="bevel"/>
<path d="M100 -20H300L250 250L150 280L100 -20Z" fill="url(#paint15_linear_143_4247)" stroke="#1C1228" stroke-width="1.5" stroke-linejoin="bevel"/>
<path opacity="0.25" d="M100 -20H300L250 250L150 280L100 -20Z" fill="white" stroke="#1C1228" stroke-width="1.5" stroke-linejoin="bevel"/>
<path d="M280 -20H550L450 350L320 380L280 -20Z" fill="url(#paint16_linear_143_4247)" stroke="#1C1228" stroke-width="1.5" stroke-linejoin="bevel"/>
<path opacity="0.1" d="M280 -20H550L450 350L320 380L280 -20Z" fill="black" stroke="#1C1228" stroke-width="1.5" stroke-linejoin="bevel"/>
<path d="M450 -20H700L600 200L400 160L450 -20Z" fill="url(#paint17_linear_143_4247)" stroke="#1C1228" stroke-width="1.5" stroke-linejoin="bevel"/>
<path opacity="0.35" d="M450 -20H700L600 200L400 160L450 -20Z" fill="black" stroke="#1C1228" stroke-width="1.5" stroke-linejoin="bevel"/>
<path d="M550 -20H800L900 370L800 360L700 300L550 -20Z" fill="url(#paint18_linear_143_4247)" stroke="#1C1228" stroke-width="1.5" stroke-linejoin="bevel"/>
<path opacity="0.1" d="M550 -20H800L900 370L800 360L700 300L550 -20Z" fill="white" stroke="#1C1228" stroke-width="1.5" stroke-linejoin="bevel"/>
<path d="M750 -20H950L850 250L650 270L750 -20Z" fill="url(#paint19_linear_143_4247)" stroke="#1C1228" stroke-width="1.5" stroke-linejoin="bevel"/>
<path opacity="0.5" d="M750 -20H950L850 250L650 270L750 -20Z" fill="black" stroke="#1C1228" stroke-width="1.5" stroke-linejoin="bevel"/>
<path d="M850 -20H1150L1000 380L950 350L850 340V-20Z" fill="url(#paint20_linear_143_4247)" stroke="#1C1228" stroke-width="1.5" stroke-linejoin="bevel"/>
<path opacity="0.15" d="M850 -20H1150L1000 380L950 350L850 340V-20Z" fill="black" stroke="#1C1228" stroke-width="1.5" stroke-linejoin="bevel"/>
<path d="M1050 -20H1300L1400 280L1150 220L1050 -20Z" fill="url(#paint21_linear_143_4247)" stroke="#1C1228" stroke-width="1.5" stroke-linejoin="bevel"/>
<path opacity="0.15" d="M1050 -20H1300L1400 280L1150 220L1050 -20Z" fill="white" stroke="#1C1228" stroke-width="1.5" stroke-linejoin="bevel"/>
<path d="M1250 -20H1500V200L1350 180L1250 -20Z" fill="url(#paint22_linear_143_4247)" stroke="#1C1228" stroke-width="1.5" stroke-linejoin="bevel"/>
<path opacity="0.4" d="M1250 -20H1500V200L1350 180L1250 -20Z" fill="black" stroke="#1C1228" stroke-width="1.5" stroke-linejoin="bevel"/>
<path d="M1300 -20H1500V370L1400 320L1300 -20Z" fill="url(#paint23_linear_143_4247)" stroke="#1C1228" stroke-width="1.5" stroke-linejoin="bevel"/>
<path opacity="0.1" d="M1300 -20H1500V370L1400 320L1300 -20Z" fill="black" stroke="#1C1228" stroke-width="1.5" stroke-linejoin="bevel"/>
<path d="M180 -20H220L280 310H240L180 -20Z" fill="url(#paint24_linear_143_4247)" stroke="#1C1228" stroke-width="1.5" stroke-linejoin="bevel"/>
<path opacity="0.55" d="M180 -20H220L280 310H240L180 -20Z" fill="black" stroke="#1C1228" stroke-width="1.5" stroke-linejoin="bevel"/>
<path d="M680 -20H720L660 330H620L680 -20Z" fill="url(#paint25_linear_143_4247)" stroke="#1C1228" stroke-width="1.5" stroke-linejoin="bevel"/>
<path opacity="0.25" d="M680 -20H720L660 330H620L680 -20Z" fill="white" stroke="#1C1228" stroke-width="1.5" stroke-linejoin="bevel"/>
<path d="M1120 -20H1160L1060 350H1020L1120 -20Z" fill="url(#paint26_linear_143_4247)" stroke="#1C1228" stroke-width="1.5" stroke-linejoin="bevel"/>
<path opacity="0.45" d="M1120 -20H1160L1060 350H1020L1120 -20Z" fill="black" stroke="#1C1228" stroke-width="1.5" stroke-linejoin="bevel"/>
</g>
<defs>
<linearGradient id="paint0_linear_143_4247" x1="3.65756e-07" y1="1.00977e-05" x2="1440" y2="1.00977e-05" gradientUnits="userSpaceOnUse">
<stop stop-color="#F8BA9D"/>
<stop offset="0.25" stop-color="#F08891"/>
<stop offset="0.5" stop-color="#B66DB5"/>
<stop offset="0.75" stop-color="#8A53B5"/>
<stop offset="1" stop-color="#4E3582"/>
</linearGradient>
<linearGradient id="paint1_linear_143_4247" x1="-7.15256e-06" y1="8.9407e-06" x2="1440" y2="8.9407e-06" gradientUnits="userSpaceOnUse">
<stop stop-color="#F8BA9D"/>
<stop offset="0.25" stop-color="#F08891"/>
<stop offset="0.5" stop-color="#B66DB5"/>
<stop offset="0.75" stop-color="#8A53B5"/>
<stop offset="1" stop-color="#4E3582"/>
</linearGradient>
<linearGradient id="paint2_linear_143_4247" x1="-2.68221e-06" y1="9.75349e-06" x2="1440" y2="9.75349e-06" gradientUnits="userSpaceOnUse">
<stop stop-color="#F8BA9D"/>
<stop offset="0.25" stop-color="#F08891"/>
<stop offset="0.5" stop-color="#B66DB5"/>
<stop offset="0.75" stop-color="#8A53B5"/>
<stop offset="1" stop-color="#4E3582"/>
</linearGradient>
<linearGradient id="paint3_linear_143_4247" x1="4.29153e-05" y1="8.9407e-06" x2="1440" y2="8.9407e-06" gradientUnits="userSpaceOnUse">
<stop stop-color="#F8BA9D"/>
<stop offset="0.25" stop-color="#F08891"/>
<stop offset="0.5" stop-color="#B66DB5"/>
<stop offset="0.75" stop-color="#8A53B5"/>
<stop offset="1" stop-color="#4E3582"/>
</linearGradient>
<linearGradient id="paint4_linear_143_4247" x1="0" y1="9.53674e-06" x2="1440" y2="9.53674e-06" gradientUnits="userSpaceOnUse">
<stop stop-color="#F8BA9D"/>
<stop offset="0.25" stop-color="#F08891"/>
<stop offset="0.5" stop-color="#B66DB5"/>
<stop offset="0.75" stop-color="#8A53B5"/>
<stop offset="1" stop-color="#4E3582"/>
</linearGradient>
<linearGradient id="paint5_linear_143_4247" x1="4.29153e-05" y1="9.19614e-06" x2="1440" y2="9.19614e-06" gradientUnits="userSpaceOnUse">
<stop stop-color="#F8BA9D"/>
<stop offset="0.25" stop-color="#F08891"/>
<stop offset="0.5" stop-color="#B66DB5"/>
<stop offset="0.75" stop-color="#8A53B5"/>
<stop offset="1" stop-color="#4E3582"/>
</linearGradient>
<linearGradient id="paint6_linear_143_4247" x1="-8.04663e-07" y1="9.69056e-06" x2="1440" y2="9.69056e-06" gradientUnits="userSpaceOnUse">
<stop stop-color="#F8BA9D"/>
<stop offset="0.25" stop-color="#F08891"/>
<stop offset="0.5" stop-color="#B66DB5"/>
<stop offset="0.75" stop-color="#8A53B5"/>
<stop offset="1" stop-color="#4E3582"/>
</linearGradient>
<linearGradient id="paint7_linear_143_4247" x1="-2.5034e-06" y1="1.00977e-05" x2="1440" y2="1.00977e-05" gradientUnits="userSpaceOnUse">
<stop stop-color="#F8BA9D"/>
<stop offset="0.25" stop-color="#F08891"/>
<stop offset="0.5" stop-color="#B66DB5"/>
<stop offset="0.75" stop-color="#8A53B5"/>
<stop offset="1" stop-color="#4E3582"/>
</linearGradient>
<linearGradient id="paint8_linear_143_4247" x1="-1.22615e-05" y1="1.00136e-05" x2="1440" y2="1.00136e-05" gradientUnits="userSpaceOnUse">
<stop stop-color="#F8BA9D"/>
<stop offset="0.25" stop-color="#F08891"/>
<stop offset="0.5" stop-color="#B66DB5"/>
<stop offset="0.75" stop-color="#8A53B5"/>
<stop offset="1" stop-color="#4E3582"/>
</linearGradient>
<linearGradient id="paint9_linear_143_4247" x1="-2.86102e-05" y1="9.53674e-06" x2="1440" y2="9.53674e-06" gradientUnits="userSpaceOnUse">
<stop stop-color="#F8BA9D"/>
<stop offset="0.25" stop-color="#F08891"/>
<stop offset="0.5" stop-color="#B66DB5"/>
<stop offset="0.75" stop-color="#8A53B5"/>
<stop offset="1" stop-color="#4E3582"/>
</linearGradient>
<linearGradient id="paint10_linear_143_4247" x1="-8.58307e-06" y1="9.27899e-06" x2="1440" y2="9.27899e-06" gradientUnits="userSpaceOnUse">
<stop stop-color="#F8BA9D"/>
<stop offset="0.25" stop-color="#F08891"/>
<stop offset="0.5" stop-color="#B66DB5"/>
<stop offset="0.75" stop-color="#8A53B5"/>
<stop offset="1" stop-color="#4E3582"/>
</linearGradient>
<linearGradient id="paint11_linear_143_4247" x1="6.4373e-05" y1="9.03481e-06" x2="1440" y2="9.03481e-06" gradientUnits="userSpaceOnUse">
<stop stop-color="#F8BA9D"/>
<stop offset="0.25" stop-color="#F08891"/>
<stop offset="0.5" stop-color="#B66DB5"/>
<stop offset="0.75" stop-color="#8A53B5"/>
<stop offset="1" stop-color="#4E3582"/>
</linearGradient>
<linearGradient id="paint12_linear_143_4247" x1="6.4373e-05" y1="9.80922e-06" x2="1440" y2="9.80922e-06" gradientUnits="userSpaceOnUse">
<stop stop-color="#F8BA9D"/>
<stop offset="0.25" stop-color="#F08891"/>
<stop offset="0.5" stop-color="#B66DB5"/>
<stop offset="0.75" stop-color="#8A53B5"/>
<stop offset="1" stop-color="#4E3582"/>
</linearGradient>
<linearGradient id="paint13_linear_143_4247" x1="0" y1="8.58307e-06" x2="1440" y2="8.58307e-06" gradientUnits="userSpaceOnUse">
<stop stop-color="#F8BA9D"/>
<stop offset="0.25" stop-color="#F08891"/>
<stop offset="0.5" stop-color="#B66DB5"/>
<stop offset="0.75" stop-color="#8A53B5"/>
<stop offset="1" stop-color="#4E3582"/>
</linearGradient>
<linearGradient id="paint14_linear_143_4247" x1="0" y1="9.90354e-06" x2="1440" y2="9.90354e-06" gradientUnits="userSpaceOnUse">
<stop stop-color="#F8BA9D"/>
<stop offset="0.25" stop-color="#F08891"/>
<stop offset="0.5" stop-color="#B66DB5"/>
<stop offset="0.75" stop-color="#8A53B5"/>
<stop offset="1" stop-color="#4E3582"/>
</linearGradient>
<linearGradient id="paint15_linear_143_4247" x1="0" y1="1.00136e-05" x2="1440" y2="1.00136e-05" gradientUnits="userSpaceOnUse">
<stop stop-color="#F8BA9D"/>
<stop offset="0.25" stop-color="#F08891"/>
<stop offset="0.5" stop-color="#B66DB5"/>
<stop offset="0.75" stop-color="#8A53B5"/>
<stop offset="1" stop-color="#4E3582"/>
</linearGradient>
<linearGradient id="paint16_linear_143_4247" x1="-4.76837e-06" y1="8.58307e-06" x2="1440" y2="8.58307e-06" gradientUnits="userSpaceOnUse">
<stop stop-color="#F8BA9D"/>
<stop offset="0.25" stop-color="#F08891"/>
<stop offset="0.5" stop-color="#B66DB5"/>
<stop offset="0.75" stop-color="#8A53B5"/>
<stop offset="1" stop-color="#4E3582"/>
</linearGradient>
<linearGradient id="paint17_linear_143_4247" x1="-2.86102e-05" y1="9.75349e-06" x2="1440" y2="9.75349e-06" gradientUnits="userSpaceOnUse">
<stop stop-color="#F8BA9D"/>
<stop offset="0.25" stop-color="#F08891"/>
<stop offset="0.5" stop-color="#B66DB5"/>
<stop offset="0.75" stop-color="#8A53B5"/>
<stop offset="1" stop-color="#4E3582"/>
</linearGradient>
<linearGradient id="paint18_linear_143_4247" x1="-1.22615e-05" y1="8.80315e-06" x2="1440" y2="8.80315e-06" gradientUnits="userSpaceOnUse">
<stop stop-color="#F8BA9D"/>
<stop offset="0.25" stop-color="#F08891"/>
<stop offset="0.5" stop-color="#B66DB5"/>
<stop offset="0.75" stop-color="#8A53B5"/>
<stop offset="1" stop-color="#4E3582"/>
</linearGradient>
<linearGradient id="paint19_linear_143_4247" x1="-2.5034e-05" y1="8.87904e-06" x2="1440" y2="8.87904e-06" gradientUnits="userSpaceOnUse">
<stop stop-color="#F8BA9D"/>
<stop offset="0.25" stop-color="#F08891"/>
<stop offset="0.5" stop-color="#B66DB5"/>
<stop offset="0.75" stop-color="#8A53B5"/>
<stop offset="1" stop-color="#4E3582"/>
</linearGradient>
<linearGradient id="paint20_linear_143_4247" x1="-3.93391e-05" y1="8.58307e-06" x2="1440" y2="8.58307e-06" gradientUnits="userSpaceOnUse">
<stop stop-color="#F8BA9D"/>
<stop offset="0.25" stop-color="#F08891"/>
<stop offset="0.5" stop-color="#B66DB5"/>
<stop offset="0.75" stop-color="#8A53B5"/>
<stop offset="1" stop-color="#4E3582"/>
</linearGradient>
<linearGradient id="paint21_linear_143_4247" x1="-4.29153e-05" y1="1.00136e-05" x2="1440" y2="1.00136e-05" gradientUnits="userSpaceOnUse">
<stop stop-color="#F8BA9D"/>
<stop offset="0.25" stop-color="#F08891"/>
<stop offset="0.5" stop-color="#B66DB5"/>
<stop offset="0.75" stop-color="#8A53B5"/>
<stop offset="1" stop-color="#4E3582"/>
</linearGradient>
<linearGradient id="paint22_linear_143_4247" x1="-8.58307e-05" y1="9.75349e-06" x2="1440" y2="9.75349e-06" gradientUnits="userSpaceOnUse">
<stop stop-color="#F8BA9D"/>
<stop offset="0.25" stop-color="#F08891"/>
<stop offset="0.5" stop-color="#B66DB5"/>
<stop offset="0.75" stop-color="#8A53B5"/>
<stop offset="1" stop-color="#4E3582"/>
</linearGradient>
<linearGradient id="paint23_linear_143_4247" x1="4.29153e-05" y1="8.80315e-06" x2="1440" y2="8.80315e-06" gradientUnits="userSpaceOnUse">
<stop stop-color="#F8BA9D"/>
<stop offset="0.25" stop-color="#F08891"/>
<stop offset="0.5" stop-color="#B66DB5"/>
<stop offset="0.75" stop-color="#8A53B5"/>
<stop offset="1" stop-color="#4E3582"/>
</linearGradient>
<linearGradient id="paint24_linear_143_4247" x1="8.58307e-06" y1="9.10325e-06" x2="1440" y2="9.10325e-06" gradientUnits="userSpaceOnUse">
<stop stop-color="#F8BA9D"/>
<stop offset="0.25" stop-color="#F08891"/>
<stop offset="0.5" stop-color="#B66DB5"/>
<stop offset="0.75" stop-color="#8A53B5"/>
<stop offset="1" stop-color="#4E3582"/>
</linearGradient>
<linearGradient id="paint25_linear_143_4247" x1="3.43323e-05" y1="9.80922e-06" x2="1440" y2="9.80922e-06" gradientUnits="userSpaceOnUse">
<stop stop-color="#F8BA9D"/>
<stop offset="0.25" stop-color="#F08891"/>
<stop offset="0.5" stop-color="#B66DB5"/>
<stop offset="0.75" stop-color="#8A53B5"/>
<stop offset="1" stop-color="#4E3582"/>
</linearGradient>
<linearGradient id="paint26_linear_143_4247" x1="4.59807e-05" y1="9.27899e-06" x2="1440" y2="9.27899e-06" gradientUnits="userSpaceOnUse">
<stop stop-color="#F8BA9D"/>
<stop offset="0.25" stop-color="#F08891"/>
<stop offset="0.5" stop-color="#B66DB5"/>
<stop offset="0.75" stop-color="#8A53B5"/>
<stop offset="1" stop-color="#4E3582"/>
</linearGradient>
<clipPath id="clip0_143_4247">
<rect width="1440" height="380" fill="white"/>
</clipPath>
</defs>
</svg>
