<svg width="24" height="24" viewBox="0 0 24 24" fill="none" xmlns="http://www.w3.org/2000/svg">
<path fill-rule="evenodd" clip-rule="evenodd" d="M15.8225 13.343H13.3472V17.3305C13.3508 20.9471 10.4698 23.9066 6.85471 23.9998C6.11217 24.0122 5.50018 23.4202 5.4878 22.6776C5.47543 21.935 6.06735 21.323 6.8099 21.3106H6.89505C9.00769 21.1933 10.6611 19.4466 10.6626 17.3305V13.343H9.66472C8.92217 13.343 8.32022 12.741 8.32022 11.9984C8.32022 11.2558 8.92217 10.6538 9.66472 10.6538H10.6626V6.67076C10.6593 3.04376 13.5561 0.0796592 17.182 0C17.9245 0.0165024 18.5131 0.631883 18.4966 1.37449C18.4801 2.1171 17.8648 2.70572 17.1222 2.68922C15.0054 2.80126 13.3466 4.55078 13.3472 6.67076V10.6583H15.8225C16.5651 10.6583 17.167 11.2603 17.167 12.0029C17.167 12.7455 16.5651 13.3475 15.8225 13.3475V13.343ZM5.1219 22.6577C5.12199 22.0949 5.3899 21.5657 5.84345 21.2324C3.84857 20.8059 2.49697 18.9428 2.71056 16.9139C2.92416 14.885 4.63409 13.3442 6.67406 13.3425H8.58026C8.18806 13.0059 7.96238 12.5148 7.96238 11.9979C7.96238 11.4811 8.18806 10.9899 8.58026 10.6533H6.67406C3.18591 10.653 0.286003 13.3394 0.0197321 16.8176C-0.246539 20.2959 2.21067 23.3924 5.65821 23.9231C5.31648 23.5907 5.12315 23.1345 5.1219 22.6577ZM18.8793 1.46196C18.9152 0.94441 18.7224 0.437144 18.3517 0.0742188C20.6394 0.42667 22.581 1.93979 23.4787 4.08415C24.3442 6.14423 24.1218 8.50071 22.8862 10.3625C21.6506 12.2242 19.5657 13.3444 17.3314 13.347H16.9041C17.2963 13.0104 17.522 12.5193 17.522 12.0024C17.522 11.4855 17.2963 10.9944 16.9041 10.6578H17.3314C19.3802 10.6687 21.1041 9.12545 21.3192 7.08776C21.5344 5.05007 20.1709 3.18076 18.165 2.76344C18.5823 2.45524 18.8434 1.9795 18.8793 1.46196Z" fill="url(#paint0_linear_9983_66233)"/>
<path fill-rule="evenodd" clip-rule="evenodd" d="M15.8225 13.343H13.3472V17.3305C13.3508 20.9471 10.4698 23.9066 6.85471 23.9998C6.11217 24.0122 5.50018 23.4202 5.4878 22.6776C5.47543 21.935 6.06735 21.323 6.8099 21.3106H6.89505C9.00769 21.1933 10.6611 19.4466 10.6626 17.3305V13.343H9.66472C8.92217 13.343 8.32022 12.741 8.32022 11.9984C8.32022 11.2558 8.92217 10.6538 9.66472 10.6538H10.6626V6.67076C10.6593 3.04376 13.5561 0.0796592 17.182 0C17.9245 0.0165024 18.5131 0.631883 18.4966 1.37449C18.4801 2.1171 17.8648 2.70572 17.1222 2.68922C15.0054 2.80126 13.3466 4.55078 13.3472 6.67076V10.6583H15.8225C16.5651 10.6583 17.167 11.2603 17.167 12.0029C17.167 12.7455 16.5651 13.3475 15.8225 13.3475V13.343ZM5.1219 22.6577C5.12199 22.0949 5.3899 21.5657 5.84345 21.2324C3.84857 20.8059 2.49697 18.9428 2.71056 16.9139C2.92416 14.885 4.63409 13.3442 6.67406 13.3425H8.58026C8.18806 13.0059 7.96238 12.5148 7.96238 11.9979C7.96238 11.4811 8.18806 10.9899 8.58026 10.6533H6.67406C3.18591 10.653 0.286003 13.3394 0.0197321 16.8176C-0.246539 20.2959 2.21067 23.3924 5.65821 23.9231C5.31648 23.5907 5.12315 23.1345 5.1219 22.6577ZM18.8793 1.46196C18.9152 0.94441 18.7224 0.437144 18.3517 0.0742188C20.6394 0.42667 22.581 1.93979 23.4787 4.08415C24.3442 6.14423 24.1218 8.50071 22.8862 10.3625C21.6506 12.2242 19.5657 13.3444 17.3314 13.347H16.9041C17.2963 13.0104 17.522 12.5193 17.522 12.0024C17.522 11.4855 17.2963 10.9944 16.9041 10.6578H17.3314C19.3802 10.6687 21.1041 9.12545 21.3192 7.08776C21.5344 5.05007 20.1709 3.18076 18.165 2.76344C18.5823 2.45524 18.8434 1.9795 18.8793 1.46196Z" fill="url(#paint1_linear_9983_66233)"/>
<defs>
<linearGradient id="paint0_linear_9983_66233" x1="21.5" y1="6.5" x2="3" y2="22" gradientUnits="userSpaceOnUse">
<stop stop-color="#553CDC"/>
<stop offset="0.5" stop-color="#9D61BE"/>
<stop offset="1" stop-color="#F3AB5F"/>
</linearGradient>
<linearGradient id="paint1_linear_9983_66233" x1="15" y1="1.19209e-07" x2="14" y2="8" gradientUnits="userSpaceOnUse">
<stop stop-color="#8BE9D1"/>
<stop offset="1" stop-color="white" stop-opacity="0"/>
</linearGradient>
</defs>
</svg>
